# Blender 3.6.0
# www.blender.org
mtllib Agua.mtl
o Agua
v -13.000000 -2.260000 21.000000
v 13.000000 -2.260000 21.000000
v -13.000000 -2.260000 0.000000
v 13.000000 -2.260000 0.000000
v 33.528610 -2.606219 13.675657
v 850.000000 -2.606219 13.675657
v 33.528610 -2.606219 0.000000
v 850.000000 -2.606219 0.000000
v -33.528610 -2.606219 13.675657
v -850.000000 -2.606219 13.675657
v -33.528610 -2.606219 0.000000
v -850.000000 -2.606219 0.000000
v -13.000000 -2.260000 -21.000000
v 13.000000 -2.260000 -21.000000
v 33.528610 -2.606219 -13.675657
v 850.000000 -2.606219 -13.675657
v -33.528610 -2.606219 -13.675657
v -850.000000 -2.606219 -13.675657
vn -0.0000 1.0000 -0.0000
vt -3.857656 -5.297846
vt 4.585811 -5.297846
vt 4.585811 6.297846
vt -3.857656 6.297846
vt -119.630058 1.574832
vt 120.731743 -4.809412
vt 120.630089 -0.574831
vt -119.731735 5.809412
s 1
usemtl Water
f 1/1/1 2/2/1 4/3/1 3/4/1
f 5/5/1 6/6/1 8/7/1 7/8/1
f 9/5/1 11/8/1 12/7/1 10/6/1
f 13/1/1 3/4/1 4/3/1 14/2/1
f 15/5/1 7/8/1 8/7/1 16/6/1
f 17/5/1 18/6/1 12/7/1 11/8/1
