# Blender 3.6.0
# www.blender.org
mtllib Decoraciones.mtl
o Decoraciones
v -6.736176 -0.000146 -7.190545
v -6.736176 0.722437 -7.190545
v -6.736176 -0.000146 -7.913128
v -6.736176 0.722437 -7.913128
v -6.013594 -0.000146 -7.190545
v -6.013594 0.722437 -7.190545
v -6.013594 -0.000146 -7.913128
v -6.013594 0.722437 -7.913128
v -7.135334 0.944866 -8.099831
v -7.135334 0.061366 -7.923385
v -5.387811 0.944866 -8.099831
v -5.387811 0.061366 -7.923385
v -5.238697 1.618218 -8.175835
v -6.022239 1.618219 -8.175835
v -5.238698 0.003285 -8.020164
v -6.022240 0.003285 -8.020164
v -4.797495 1.430207 -8.174517
v -5.586536 1.430207 -8.174517
v -4.797495 0.016870 -8.174517
v -5.586536 0.016870 -8.174517
v -0.488970 -0.012640 -7.277500
v -0.488970 0.601415 -7.277500
v -0.602070 -0.012640 -7.918926
v -0.602070 0.601415 -7.918926
v 0.494712 -0.012640 -7.450949
v 0.494712 0.601415 -7.450949
v 0.381611 -0.012640 -8.092375
v 0.381611 0.601415 -8.092375
v 2.078716 0.002667 -8.179163
v 1.936782 0.002667 -8.150930
v 1.816456 0.002667 -8.070532
v 1.736056 0.002667 -7.950206
v 1.707824 0.002667 -7.808271
v 1.736056 0.002667 -7.666337
v 1.816456 0.002667 -7.546011
v 1.936782 0.002667 -7.465611
v 2.078716 0.002667 -7.437379
v 2.220650 0.002667 -7.465611
v 2.340976 0.002667 -7.546011
v 2.421375 0.002667 -7.666337
v 2.449607 0.002667 -7.808271
v 2.421375 0.002667 -7.950206
v 2.340976 0.002667 -8.070532
v 2.220650 0.002667 -8.150930
v 2.078716 0.147008 -8.245280
v 1.911480 0.147008 -8.212014
v 1.769704 0.147008 -8.117283
v 1.674972 0.147008 -7.975508
v 1.641707 0.147008 -7.808271
v 1.674972 0.147008 -7.641035
v 1.769704 0.147008 -7.499259
v 1.911480 0.147008 -7.404527
v 2.078716 0.147008 -7.371262
v 2.245952 0.147008 -7.404527
v 2.387727 0.147008 -7.499259
v 2.482459 0.147008 -7.641035
v 2.515724 0.147008 -7.808271
v 2.482459 0.147008 -7.975508
v 2.387727 0.147008 -8.117283
v 2.245952 0.147008 -8.212014
v 2.078716 0.449016 -8.290489
v 1.894179 0.449016 -8.253782
v 1.737736 0.449016 -8.149251
v 1.633204 0.449016 -7.992808
v 1.596498 0.449016 -7.808271
v 1.633204 0.449016 -7.623734
v 1.737736 0.449016 -7.467292
v 1.894179 0.449016 -7.362760
v 2.078716 0.449016 -7.326053
v 2.263253 0.449016 -7.362760
v 2.419695 0.449016 -7.467292
v 2.524227 0.449016 -7.623734
v 2.560934 0.449016 -7.808271
v 2.524227 0.449016 -7.992808
v 2.419695 0.449016 -8.149251
v 2.263253 0.449016 -8.253782
v 2.078716 0.855757 -8.290489
v 1.894179 0.855757 -8.253782
v 1.737736 0.855757 -8.149251
v 1.633204 0.855757 -7.992808
v 1.596498 0.855757 -7.808271
v 1.633204 0.855757 -7.623734
v 1.737736 0.855757 -7.467292
v 1.894179 0.855757 -7.362760
v 2.078716 0.855757 -7.326053
v 2.263253 0.855757 -7.362760
v 2.419695 0.855757 -7.467292
v 2.524227 0.855757 -7.623734
v 2.560934 0.855757 -7.808271
v 2.524227 0.855757 -7.992808
v 2.419695 0.855757 -8.149251
v 2.263253 0.855757 -8.253782
v 2.078716 1.155184 -8.227401
v 1.918322 1.155184 -8.195496
v 1.782347 1.155184 -8.104640
v 1.691491 1.155184 -7.968666
v 1.659587 1.155184 -7.808271
v 1.691491 1.155184 -7.647878
v 1.782347 1.155184 -7.511903
v 1.918322 1.155184 -7.421046
v 2.078716 1.155184 -7.389143
v 2.239110 1.155184 -7.421046
v 2.375085 1.155184 -7.511903
v 2.465940 1.155184 -7.647878
v 2.497844 1.155184 -7.808271
v 2.465940 1.155184 -7.968666
v 2.375085 1.155184 -8.104640
v 2.239110 1.155184 -8.195496
v 2.078716 1.297034 -8.158574
v 1.944661 1.297034 -8.131907
v 1.831014 1.297034 -8.055972
v 1.755079 1.297034 -7.942326
v 1.728413 1.297034 -7.808271
v 1.755079 1.297034 -7.674217
v 1.831014 1.297034 -7.560570
v 1.944661 1.297034 -7.484633
v 2.078716 1.297034 -7.457968
v 2.212771 1.297034 -7.484633
v 2.326417 1.297034 -7.560570
v 2.402353 1.297034 -7.674217
v 2.429018 1.297034 -7.808271
v 2.402353 1.297034 -7.942326
v 2.326417 1.297034 -8.055972
v 2.212771 1.297034 -8.131907
v 2.078716 1.311275 -7.808270
v -6.736176 -0.000146 7.190545
v -6.736176 0.722437 7.190545
v -6.736176 -0.000146 7.913128
v -6.736176 0.722437 7.913128
v -6.013594 -0.000146 7.190545
v -6.013594 0.722437 7.190545
v -6.013594 -0.000146 7.913128
v -6.013594 0.722437 7.913128
v -7.135334 0.944866 8.099831
v -7.135334 0.061366 7.923385
v -5.387811 0.944866 8.099831
v -5.387811 0.061366 7.923385
v -5.238697 1.618218 8.175835
v -6.022239 1.618219 8.175835
v -5.238698 0.003285 8.020164
v -6.022240 0.003285 8.020164
v -4.797495 1.430207 8.174517
v -5.586536 1.430207 8.174517
v -4.797495 0.016870 8.174517
v -5.586536 0.016870 8.174517
v -0.488970 -0.012640 7.277500
v -0.488970 0.601415 7.277500
v -0.602070 -0.012640 7.918926
v -0.602070 0.601415 7.918926
v 0.494712 -0.012640 7.450949
v 0.494712 0.601415 7.450949
v 0.381611 -0.012640 8.092375
v 0.381611 0.601415 8.092375
v 2.078716 0.002667 8.179163
v 1.936782 0.002667 8.150930
v 1.816456 0.002667 8.070532
v 1.736056 0.002667 7.950206
v 1.707824 0.002667 7.808271
v 1.736056 0.002667 7.666337
v 1.816456 0.002667 7.546011
v 1.936782 0.002667 7.465611
v 2.078716 0.002667 7.437379
v 2.220650 0.002667 7.465611
v 2.340976 0.002667 7.546011
v 2.421375 0.002667 7.666337
v 2.449607 0.002667 7.808271
v 2.421375 0.002667 7.950206
v 2.340976 0.002667 8.070532
v 2.220650 0.002667 8.150930
v 2.078716 0.147008 8.245280
v 1.911480 0.147008 8.212014
v 1.769704 0.147008 8.117283
v 1.674972 0.147008 7.975508
v 1.641707 0.147008 7.808271
v 1.674972 0.147008 7.641035
v 1.769704 0.147008 7.499259
v 1.911480 0.147008 7.404527
v 2.078716 0.147008 7.371262
v 2.245952 0.147008 7.404527
v 2.387727 0.147008 7.499259
v 2.482459 0.147008 7.641035
v 2.515724 0.147008 7.808271
v 2.482459 0.147008 7.975508
v 2.387727 0.147008 8.117283
v 2.245952 0.147008 8.212014
v 2.078716 0.449016 8.290489
v 1.894179 0.449016 8.253782
v 1.737736 0.449016 8.149251
v 1.633204 0.449016 7.992808
v 1.596498 0.449016 7.808271
v 1.633204 0.449016 7.623734
v 1.737736 0.449016 7.467292
v 1.894179 0.449016 7.362760
v 2.078716 0.449016 7.326053
v 2.263253 0.449016 7.362760
v 2.419695 0.449016 7.467292
v 2.524227 0.449016 7.623734
v 2.560934 0.449016 7.808271
v 2.524227 0.449016 7.992808
v 2.419695 0.449016 8.149251
v 2.263253 0.449016 8.253782
v 2.078716 0.855757 8.290489
v 1.894179 0.855757 8.253782
v 1.737736 0.855757 8.149251
v 1.633204 0.855757 7.992808
v 1.596498 0.855757 7.808271
v 1.633204 0.855757 7.623734
v 1.737736 0.855757 7.467292
v 1.894179 0.855757 7.362760
v 2.078716 0.855757 7.326053
v 2.263253 0.855757 7.362760
v 2.419695 0.855757 7.467292
v 2.524227 0.855757 7.623734
v 2.560934 0.855757 7.808271
v 2.524227 0.855757 7.992808
v 2.419695 0.855757 8.149251
v 2.263253 0.855757 8.253782
v 2.078716 1.155184 8.227401
v 1.918322 1.155184 8.195496
v 1.782347 1.155184 8.104640
v 1.691491 1.155184 7.968666
v 1.659587 1.155184 7.808271
v 1.691491 1.155184 7.647878
v 1.782347 1.155184 7.511903
v 1.918322 1.155184 7.421046
v 2.078716 1.155184 7.389143
v 2.239110 1.155184 7.421046
v 2.375085 1.155184 7.511903
v 2.465940 1.155184 7.647878
v 2.497844 1.155184 7.808271
v 2.465940 1.155184 7.968666
v 2.375085 1.155184 8.104640
v 2.239110 1.155184 8.195496
v 2.078716 1.297034 8.158574
v 1.944661 1.297034 8.131907
v 1.831014 1.297034 8.055972
v 1.755079 1.297034 7.942326
v 1.728413 1.297034 7.808271
v 1.755079 1.297034 7.674217
v 1.831014 1.297034 7.560570
v 1.944661 1.297034 7.484633
v 2.078716 1.297034 7.457968
v 2.212771 1.297034 7.484633
v 2.326417 1.297034 7.560570
v 2.402353 1.297034 7.674217
v 2.429018 1.297034 7.808271
v 2.402353 1.297034 7.942326
v 2.326417 1.297034 8.055972
v 2.212771 1.297034 8.131907
v 2.078716 1.311275 7.808270
vn -1.0000 -0.0000 -0.0000
vn -0.0000 -0.0000 -1.0000
vn 1.0000 -0.0000 -0.0000
vn -0.0000 -0.0000 1.0000
vn -0.0000 1.0000 -0.0000
vn -0.0000 0.1958 0.9806
vn -0.0000 0.0959 0.9954
vn -0.9848 -0.0000 0.1736
vn -0.1736 -0.0000 -0.9848
vn 0.9848 -0.0000 -0.1736
vn 0.1736 -0.0000 0.9848
vn -0.0000 0.4164 -0.9092
vn 0.3479 0.4164 -0.8400
vn 0.3673 0.2804 -0.8868
vn -0.0000 0.2804 -0.9599
vn 0.3479 0.4164 0.8400
vn -0.0000 0.4164 0.9092
vn -0.0000 0.2804 0.9599
vn 0.3673 0.2804 0.8868
vn -0.3479 0.4164 0.8400
vn -0.3673 0.2804 0.8868
vn -0.3479 0.4164 -0.8400
vn -0.3673 0.2804 -0.8868
vn 0.6429 0.4164 0.6429
vn 0.6787 0.2804 0.6787
vn -0.6429 0.4164 -0.6429
vn -0.6787 0.2804 -0.6787
vn 0.8400 0.4165 0.3479
vn 0.8868 0.2804 0.3673
vn -0.8400 0.4164 -0.3479
vn -0.8868 0.2804 -0.3673
vn 0.9092 0.4164 -0.0000
vn 0.9599 0.2804 -0.0000
vn -0.9092 0.4164 -0.0000
vn -0.9599 0.2804 -0.0000
vn 0.8400 0.4164 -0.3479
vn 0.8868 0.2804 -0.3673
vn -0.8400 0.4164 0.3479
vn -0.8868 0.2804 0.3673
vn 0.6429 0.4164 -0.6429
vn 0.6787 0.2804 -0.6787
vn -0.6429 0.4164 0.6429
vn -0.6787 0.2804 0.6787
vn 0.7052 0.0736 -0.7052
vn 0.3816 0.0736 -0.9214
vn -0.7052 0.0736 0.7052
vn -0.3816 0.0736 0.9214
vn -0.0000 0.0736 -0.9973
vn -0.0000 0.0736 0.9973
vn 0.3816 0.0736 0.9214
vn -0.3816 0.0736 -0.9214
vn 0.7052 0.0736 0.7052
vn -0.7052 0.0736 -0.7052
vn 0.9214 0.0736 0.3816
vn -0.9214 0.0736 -0.3816
vn 0.9973 0.0736 -0.0000
vn -0.9973 0.0736 -0.0000
vn 0.9214 0.0736 -0.3816
vn -0.9214 0.0736 0.3816
vn -0.9190 -0.1023 -0.3807
vn -0.9947 -0.1023 -0.0000
vn 0.9947 -0.1023 -0.0000
vn 0.9190 -0.1023 -0.3807
vn -0.9190 -0.1023 0.3807
vn 0.7034 -0.1023 -0.7034
vn -0.7034 -0.1023 0.7034
vn 0.3807 -0.1023 -0.9190
vn -0.3807 -0.1023 0.9190
vn -0.0000 -0.1023 -0.9947
vn -0.0000 -0.1023 0.9947
vn 0.3807 -0.1023 0.9190
vn -0.3807 -0.1023 -0.9190
vn 0.7034 -0.1023 0.7034
vn -0.7034 -0.1023 -0.7034
vn 0.9190 -0.1023 0.3807
vn 0.3627 -0.3192 0.8755
vn 0.6701 -0.3192 0.6701
vn -0.3627 -0.3192 -0.8755
vn -0.6701 -0.3192 -0.6701
vn 0.8755 -0.3192 0.3627
vn -0.8755 -0.3192 -0.3627
vn 0.9477 -0.3192 -0.0000
vn -0.9477 -0.3192 -0.0000
vn 0.8755 -0.3192 -0.3627
vn -0.8755 -0.3192 0.3627
vn 0.6701 -0.3192 -0.6701
vn -0.6701 -0.3192 0.6701
vn 0.3627 -0.3192 -0.8755
vn -0.3627 -0.3192 0.8755
vn -0.0000 -0.3192 -0.9477
vn -0.0000 -0.3192 0.9477
vn 0.6362 -0.4365 -0.6362
vn 0.3443 -0.4365 -0.8312
vn -0.6362 -0.4365 0.6362
vn -0.3443 -0.4365 0.8312
vn -0.0000 -0.4365 -0.8997
vn -0.0000 -0.4365 0.8997
vn 0.3443 -0.4365 0.8312
vn -0.3443 -0.4365 -0.8312
vn 0.6362 -0.4365 0.6362
vn -0.6362 -0.4365 -0.6362
vn 0.8312 -0.4365 0.3443
vn -0.8312 -0.4365 -0.3443
vn 0.8997 -0.4365 -0.0000
vn -0.8997 -0.4365 -0.0000
vn 0.8312 -0.4365 -0.3443
vn -0.8312 -0.4365 0.3443
vn -0.0406 -0.9991 -0.0081
vn 0.0406 -0.9991 -0.0081
vn -0.0406 -0.9991 0.0081
vn 0.0344 -0.9991 -0.0230
vn -0.0344 -0.9991 0.0230
vn 0.0230 -0.9991 -0.0344
vn -0.0230 -0.9991 0.0344
vn 0.0081 -0.9991 -0.0406
vn 0.0081 -0.9991 0.0406
vn -0.0081 -0.9991 0.0406
vn -0.0081 -0.9991 -0.0406
vn 0.0230 -0.9991 0.0344
vn -0.0230 -0.9991 -0.0344
vn 0.0344 -0.9991 0.0230
vn -0.0344 -0.9991 -0.0230
vn 0.0406 -0.9991 0.0081
vn -0.0000 0.1958 -0.9806
vn -0.0000 0.0959 -0.9954
vn -0.9848 -0.0000 -0.1736
vn -0.1736 -0.0000 0.9848
vn 0.9848 -0.0000 0.1736
vn 0.1736 -0.0000 -0.9848
vn 0.8400 0.4164 0.3479
vt 0.999002 0.000998
vt 0.999002 0.999002
vt 0.000998 0.999002
vt 0.000998 0.000998
vt 0.999002 0.999002
vt 0.000998 0.999002
vt 0.000998 0.000998
vt 0.999002 0.000998
vt 0.999002 0.000998
vt 0.999002 0.999002
vt 0.000998 0.999002
vt 0.000998 0.000998
vt 0.999002 0.999002
vt 0.000998 0.999002
vt 0.000998 0.000998
vt 0.999002 0.000998
vt 0.000000 0.000000
vt 1.000000 0.000000
vt 1.000000 1.000000
vt 0.000000 1.000000
vt 0.000000 1.000000
vt 0.000000 0.000000
vt 0.503709 0.159072
vt 0.549886 0.159072
vt 0.549886 0.240849
vt 0.503709 0.240849
vt 0.826945 0.159072
vt 0.873122 0.159072
vt 0.873122 0.240849
vt 0.826945 0.240849
vt 0.134296 0.159072
vt 0.180473 0.159072
vt 0.180473 0.240849
vt 0.134296 0.240849
vt 0.457532 0.159072
vt 0.457532 0.240849
vt 0.780769 0.159072
vt 0.780769 0.240849
vt 0.411356 0.159072
vt 0.411356 0.240849
vt 0.734592 0.159072
vt 0.734592 0.240849
vt 0.365179 0.159072
vt 0.365179 0.240849
vt 0.688416 0.159072
vt 0.688416 0.240849
vt 0.319002 0.159072
vt 0.319002 0.240849
vt 0.642239 0.159072
vt 0.642239 0.240849
vt 0.272826 0.159072
vt 0.272826 0.240849
vt 0.596062 0.159072
vt 0.596062 0.240849
vt 0.226649 0.159072
vt 0.226649 0.240849
vt 0.596062 0.398143
vt 0.549886 0.398143
vt 0.226649 0.398143
vt 0.180473 0.398143
vt 0.503709 0.398143
vt 0.873122 0.398143
vt 0.826945 0.398143
vt 0.134296 0.398143
vt 0.457532 0.398143
vt 0.780769 0.398143
vt 0.411356 0.398143
vt 0.734592 0.398143
vt 0.365179 0.398143
vt 0.688416 0.398143
vt 0.319002 0.398143
vt 0.642239 0.398143
vt 0.272826 0.398143
vt 0.365179 0.607650
vt 0.319002 0.607650
vt 0.688416 0.607650
vt 0.642239 0.607650
vt 0.272826 0.607650
vt 0.596062 0.607650
vt 0.226649 0.607650
vt 0.549886 0.607650
vt 0.180473 0.607650
vt 0.503709 0.607650
vt 0.873122 0.607650
vt 0.826945 0.607650
vt 0.134296 0.607650
vt 0.457532 0.607650
vt 0.780769 0.607650
vt 0.411356 0.607650
vt 0.734592 0.607650
vt 0.826945 0.765268
vt 0.780769 0.765268
vt 0.457532 0.765268
vt 0.411356 0.765268
vt 0.734592 0.765268
vt 0.365179 0.765268
vt 0.688416 0.765268
vt 0.319002 0.765268
vt 0.642239 0.765268
vt 0.272826 0.765268
vt 0.596062 0.765268
vt 0.226649 0.765268
vt 0.549886 0.765268
vt 0.180473 0.765268
vt 0.503709 0.765268
vt 0.873122 0.765268
vt 0.134296 0.765268
vt 0.596062 0.846479
vt 0.549886 0.846479
vt 0.226649 0.846479
vt 0.180473 0.846479
vt 0.503709 0.846479
vt 0.873122 0.846479
vt 0.826945 0.846479
vt 0.134296 0.846479
vt 0.457532 0.846479
vt 0.780769 0.846479
vt 0.411356 0.846479
vt 0.734592 0.846479
vt 0.365179 0.846479
vt 0.688416 0.846479
vt 0.319002 0.846479
vt 0.642239 0.846479
vt 0.272826 0.846479
vt 0.347613 0.519418
vt 0.321415 0.477109
vt 0.493493 0.454211
vt 0.590968 0.356622
vt 0.639374 0.389004
vt 0.396019 0.551800
vt 0.527722 0.339097
vt 0.459265 0.569324
vt 0.459265 0.339097
vt 0.527721 0.569324
vt 0.396019 0.356622
vt 0.639374 0.519417
vt 0.590968 0.551800
vt 0.347612 0.389004
vt 0.665571 0.477109
vt 0.321415 0.431314
vt 0.665571 0.431313
s 0
usemtl Crate
f 1/1/1 2/2/1 4/3/1 3/4/1
f 3/5/2 4/6/2 8/7/2 7/8/2
f 7/9/3 8/10/3 6/11/3 5/12/3
f 5/9/4 6/10/4 2/11/4 1/12/4
f 8/13/5 4/14/5 2/15/5 6/16/5
f 21/1/8 22/2/8 24/3/8 23/4/8
f 23/5/9 24/6/9 28/7/9 27/8/9
f 27/9/10 28/10/10 26/11/10 25/12/10
f 25/9/11 26/10/11 22/11/11 21/12/11
f 28/13/5 24/14/5 22/15/5 26/16/5
f 126/1/1 128/4/1 129/3/1 127/2/1
f 128/5/4 132/8/4 133/7/4 129/6/4
f 132/9/3 130/12/3 131/11/3 133/10/3
f 130/9/2 126/12/2 127/11/2 131/10/2
f 133/13/5 131/16/5 127/15/5 129/14/5
f 146/1/126 148/4/126 149/3/126 147/2/126
f 148/5/127 152/8/127 153/7/127 149/6/127
f 152/9/128 150/12/128 151/11/128 153/10/128
f 150/9/129 146/12/129 147/11/129 151/10/129
f 153/13/5 151/16/5 147/15/5 149/14/5
usemtl Junk_1
f 9/17/6 10/18/6 12/19/6 11/20/6
f 134/17/124 136/20/124 137/19/124 135/18/124
usemtl Junk_2
f 13/21/7 14/22/7 16/18/7 15/19/7
f 17/21/4 18/22/4 20/18/4 19/19/4
f 138/21/125 140/19/125 141/18/125 139/22/125
f 142/21/2 144/19/2 145/18/2 143/22/2
s 1
usemtl Barrel
f 37/23/12 36/24/13 52/25/14 53/26/15
f 30/27/16 29/28/17 45/29/18 46/30/19
f 29/31/17 44/32/20 60/33/21 45/34/18
f 38/35/22 37/23/12 53/26/15 54/36/23
f 31/37/24 30/27/16 46/30/19 47/38/25
f 39/39/26 38/35/22 54/36/23 55/40/27
f 32/41/28 31/37/24 47/38/25 48/42/29
f 40/43/30 39/39/26 55/40/27 56/44/31
f 33/45/32 32/41/28 48/42/29 49/46/33
f 41/47/34 40/43/30 56/44/31 57/48/35
f 34/49/36 33/45/32 49/46/33 50/50/37
f 42/51/38 41/47/34 57/48/35 58/52/39
f 35/53/40 34/49/36 50/50/37 51/54/41
f 43/55/42 42/51/38 58/52/39 59/56/43
f 36/24/13 35/53/40 51/54/41 52/25/14
f 44/32/20 43/55/42 59/56/43 60/33/21
f 52/25/14 51/54/41 67/57/44 68/58/45
f 60/33/21 59/56/43 75/59/46 76/60/47
f 53/26/15 52/25/14 68/58/45 69/61/48
f 46/30/19 45/29/18 61/62/49 62/63/50
f 45/34/18 60/33/21 76/60/47 61/64/49
f 54/36/23 53/26/15 69/61/48 70/65/51
f 47/38/25 46/30/19 62/63/50 63/66/52
f 55/40/27 54/36/23 70/65/51 71/67/53
f 48/42/29 47/38/25 63/66/52 64/68/54
f 56/44/31 55/40/27 71/67/53 72/69/55
f 49/46/33 48/42/29 64/68/54 65/70/56
f 57/48/35 56/44/31 72/69/55 73/71/57
f 50/50/37 49/46/33 65/70/56 66/72/58
f 58/52/39 57/48/35 73/71/57 74/73/59
f 51/54/41 50/50/37 66/72/58 67/57/44
f 59/56/43 58/52/39 74/73/59 75/59/46
f 73/71/57 72/69/55 88/74/60 89/75/61
f 66/72/58 65/70/56 81/76/62 82/77/63
f 74/73/59 73/71/57 89/75/61 90/78/64
f 67/57/44 66/72/58 82/77/63 83/79/65
f 75/59/46 74/73/59 90/78/64 91/80/66
f 68/58/45 67/57/44 83/79/65 84/81/67
f 76/60/47 75/59/46 91/80/66 92/82/68
f 69/61/48 68/58/45 84/81/67 85/83/69
f 62/63/50 61/62/49 77/84/70 78/85/71
f 61/64/49 76/60/47 92/82/68 77/86/70
f 70/65/51 69/61/48 85/83/69 86/87/72
f 63/66/52 62/63/50 78/85/71 79/88/73
f 71/67/53 70/65/51 86/87/72 87/89/74
f 64/68/54 63/66/52 79/88/73 80/90/75
f 72/69/55 71/67/53 87/89/74 88/74/60
f 65/70/56 64/68/54 80/90/75 81/76/62
f 79/88/73 78/85/71 94/91/76 95/92/77
f 87/89/74 86/87/72 102/93/78 103/94/79
f 80/90/75 79/88/73 95/92/77 96/95/80
f 88/74/60 87/89/74 103/94/79 104/96/81
f 81/76/62 80/90/75 96/95/80 97/97/82
f 89/75/61 88/74/60 104/96/81 105/98/83
f 82/77/63 81/76/62 97/97/82 98/99/84
f 90/78/64 89/75/61 105/98/83 106/100/85
f 83/79/65 82/77/63 98/99/84 99/101/86
f 91/80/66 90/78/64 106/100/85 107/102/87
f 84/81/67 83/79/65 99/101/86 100/103/88
f 92/82/68 91/80/66 107/102/87 108/104/89
f 85/83/69 84/81/67 100/103/88 101/105/90
f 78/85/71 77/84/70 93/106/91 94/91/76
f 77/86/70 92/82/68 108/104/89 93/107/91
f 86/87/72 85/83/69 101/105/90 102/93/78
f 100/103/88 99/101/86 115/108/92 116/109/93
f 108/104/89 107/102/87 123/110/94 124/111/95
f 101/105/90 100/103/88 116/109/93 117/112/96
f 94/91/76 93/106/91 109/113/97 110/114/98
f 93/107/91 108/104/89 124/111/95 109/115/97
f 102/93/78 101/105/90 117/112/96 118/116/99
f 95/92/77 94/91/76 110/114/98 111/117/100
f 103/94/79 102/93/78 118/116/99 119/118/101
f 96/95/80 95/92/77 111/117/100 112/119/102
f 104/96/81 103/94/79 119/118/101 120/120/103
f 97/97/82 96/95/80 112/119/102 113/121/104
f 105/98/83 104/96/81 120/120/103 121/122/105
f 98/99/84 97/97/82 113/121/104 114/123/106
f 106/100/85 105/98/83 121/122/105 122/124/107
f 99/101/86 98/99/84 114/123/106 115/108/92
f 107/102/87 106/100/85 122/124/107 123/110/94
s 0
f 121/125/108 120/126/108 125/127/108
f 114/128/109 113/129/109 125/127/109
f 122/130/110 121/125/110 125/127/110
f 115/131/111 114/128/111 125/127/111
f 123/132/112 122/130/112 125/127/112
f 116/133/113 115/131/113 125/127/113
f 124/134/114 123/132/114 125/127/114
f 117/135/115 116/133/115 125/127/115
f 110/136/116 109/137/116 125/127/116
f 109/137/117 124/134/117 125/127/117
f 118/138/118 117/135/118 125/127/118
f 111/139/119 110/136/119 125/127/119
f 119/140/120 118/138/120 125/127/120
f 112/141/121 111/139/121 125/127/121
f 120/126/122 119/140/122 125/127/122
f 113/129/123 112/141/123 125/127/123
s 1
f 162/23/17 178/26/18 177/25/19 161/24/16
f 155/27/13 171/30/14 170/29/15 154/28/12
f 154/31/12 170/34/15 185/33/23 169/32/22
f 163/35/20 179/36/21 178/26/18 162/23/17
f 156/37/40 172/38/41 171/30/14 155/27/13
f 164/39/42 180/40/43 179/36/21 163/35/20
f 157/41/36 173/42/37 172/38/41 156/37/40
f 165/43/38 181/44/39 180/40/43 164/39/42
f 158/45/32 174/46/33 173/42/37 157/41/36
f 166/47/34 182/48/35 181/44/39 165/43/38
f 159/49/130 175/50/29 174/46/33 158/45/32
f 167/51/30 183/52/31 182/48/35 166/47/34
f 160/53/24 176/54/25 175/50/29 159/49/130
f 168/55/26 184/56/27 183/52/31 167/51/30
f 161/24/16 177/25/19 176/54/25 160/53/24
f 169/32/22 185/33/23 184/56/27 168/55/26
f 177/25/19 193/58/50 192/57/52 176/54/25
f 185/33/23 201/60/51 200/59/53 184/56/27
f 178/26/18 194/61/49 193/58/50 177/25/19
f 171/30/14 187/63/45 186/62/48 170/29/15
f 170/34/15 186/64/48 201/60/51 185/33/23
f 179/36/21 195/65/47 194/61/49 178/26/18
f 172/38/41 188/66/44 187/63/45 171/30/14
f 180/40/43 196/67/46 195/65/47 179/36/21
f 173/42/37 189/68/58 188/66/44 172/38/41
f 181/44/39 197/69/59 196/67/46 180/40/43
f 174/46/33 190/70/56 189/68/58 173/42/37
f 182/48/35 198/71/57 197/69/59 181/44/39
f 175/50/29 191/72/54 190/70/56 174/46/33
f 183/52/31 199/73/55 198/71/57 182/48/35
f 176/54/25 192/57/52 191/72/54 175/50/29
f 184/56/27 200/59/53 199/73/55 183/52/31
f 198/71/57 214/75/61 213/74/64 197/69/59
f 191/72/54 207/77/75 206/76/62 190/70/56
f 199/73/55 215/78/60 214/75/61 198/71/57
f 192/57/52 208/79/73 207/77/75 191/72/54
f 200/59/53 216/80/74 215/78/60 199/73/55
f 193/58/50 209/81/71 208/79/73 192/57/52
f 201/60/51 217/82/72 216/80/74 200/59/53
f 194/61/49 210/83/70 209/81/71 193/58/50
f 187/63/45 203/85/67 202/84/69 186/62/48
f 186/64/48 202/86/69 217/82/72 201/60/51
f 195/65/47 211/87/68 210/83/70 194/61/49
f 188/66/44 204/88/65 203/85/67 187/63/45
f 196/67/46 212/89/66 211/87/68 195/65/47
f 189/68/58 205/90/63 204/88/65 188/66/44
f 197/69/59 213/74/64 212/89/66 196/67/46
f 190/70/56 206/76/62 205/90/63 189/68/58
f 204/88/65 220/92/86 219/91/88 203/85/67
f 212/89/66 228/94/87 227/93/89 211/87/68
f 205/90/63 221/95/84 220/92/86 204/88/65
f 213/74/64 229/96/85 228/94/87 212/89/66
f 206/76/62 222/97/82 221/95/84 205/90/63
f 214/75/61 230/98/83 229/96/85 213/74/64
f 207/77/75 223/99/80 222/97/82 206/76/62
f 215/78/60 231/100/81 230/98/83 214/75/61
f 208/79/73 224/101/77 223/99/80 207/77/75
f 216/80/74 232/102/79 231/100/81 215/78/60
f 209/81/71 225/103/76 224/101/77 208/79/73
f 217/82/72 233/104/78 232/102/79 216/80/74
f 210/83/70 226/105/91 225/103/76 209/81/71
f 203/85/67 219/91/88 218/106/90 202/84/69
f 202/86/69 218/107/90 233/104/78 217/82/72
f 211/87/68 227/93/89 226/105/91 210/83/70
f 225/103/76 241/109/98 240/108/100 224/101/77
f 233/104/78 249/111/99 248/110/101 232/102/79
f 226/105/91 242/112/97 241/109/98 225/103/76
f 219/91/88 235/114/93 234/113/96 218/106/90
f 218/107/90 234/115/96 249/111/99 233/104/78
f 227/93/89 243/116/95 242/112/97 226/105/91
f 220/92/86 236/117/92 235/114/93 219/91/88
f 228/94/87 244/118/94 243/116/95 227/93/89
f 221/95/84 237/119/106 236/117/92 220/92/86
f 229/96/85 245/120/107 244/118/94 228/94/87
f 222/97/82 238/121/104 237/119/106 221/95/84
f 230/98/83 246/122/105 245/120/107 229/96/85
f 223/99/80 239/123/102 238/121/104 222/97/82
f 231/100/81 247/124/103 246/122/105 230/98/83
f 224/101/77 240/108/100 239/123/102 223/99/80
f 232/102/79 248/110/101 247/124/103 231/100/81
s 0
f 246/125/110 250/127/110 245/126/110
f 239/128/123 250/127/123 238/129/123
f 247/130/108 250/127/108 246/125/108
f 240/131/121 250/127/121 239/128/121
f 248/132/122 250/127/122 247/130/122
f 241/133/119 250/127/119 240/131/119
f 249/134/120 250/127/120 248/132/120
f 242/135/116 250/127/116 241/133/116
f 235/136/115 250/127/115 234/137/115
f 234/137/118 250/127/118 249/134/118
f 243/138/117 250/127/117 242/135/117
f 236/139/113 250/127/113 235/136/113
f 244/140/114 250/127/114 243/138/114
f 237/141/111 250/127/111 236/139/111
f 245/126/112 250/127/112 244/140/112
f 238/129/109 250/127/109 237/141/109
